<?xml version="1.0" encoding="utf-8"?>
<!-- Generator: Adobe Illustrator 16.0.0, SVG Export Plug-In . SVG Version: 6.00 Build 0)  -->
<!DOCTYPE svg PUBLIC "-//W3C//DTD SVG 1.0//EN" "http://www.w3.org/TR/2001/REC-SVG-20010904/DTD/svg10.dtd">
<svg version="1.0" id="Layer_1" xmlns="http://www.w3.org/2000/svg" xmlns:xlink="http://www.w3.org/1999/xlink" x="0px" y="0px"
	 width="100px" height="100px" viewBox="0 0 100 100" enable-background="new 0 0 100 100" xml:space="preserve">
<path d="M83.333,10H16.667C13.001,10,10,13.001,10,16.667v66.667C10,86.998,13.001,90,16.667,90h66.666
	C86.999,90,90,86.998,90,83.334V16.667C90,13.001,86.999,10,83.333,10z M83.333,83.334H16.667V16.667h66.666V83.334z"/>
<rect x="30" y="43.333" width="6.667" height="26.667"/>
<circle cx="33.333" cy="35" r="5"/>
<path d="M56.667,43.333c-2.441,0-4.701,0.705-6.667,1.849V43.61h-6.667V70H50V56.666C50,52.984,52.985,50,56.667,50
	s6.666,2.984,6.666,6.666V70H70V56.666C70,49.303,64.03,43.333,56.667,43.333z"/>
</svg>
